<?xml version="1.0" encoding="UTF-8" standalone="no"?>
<svg
   xmlns:dc="http://purl.org/dc/elements/1.1/"
   xmlns:cc="http://creativecommons.org/ns#"
   xmlns:rdf="http://www.w3.org/1999/02/22-rdf-syntax-ns#"
   xmlns:svg="http://www.w3.org/2000/svg"
   xmlns="http://www.w3.org/2000/svg"
   xmlns:xlink="http://www.w3.org/1999/xlink"
   xml:space="preserve"
   enable-background="new 0 0 425.6797 167.9912"
   viewBox="0 0 394.11692 137.28012"
   height="137.28012"
   width="394.11691"
   y="0px"
   x="0px"
   id="Layer_1"
   version="1.1"><metadata
   id="metadata87"><rdf:RDF><cc:Work
       rdf:about=""><dc:format>image/svg+xml</dc:format><dc:type
         rdf:resource="http://purl.org/dc/dcmitype/StillImage" /><dc:title></dc:title></cc:Work></rdf:RDF></metadata><defs
   id="defs85" />
<g
   transform="translate(-23.98168,-15.87318)"
   id="g80">
	<g
   id="g10">
		<defs
   id="defs3">
			<rect
   height="30.6455"
   width="91.834"
   y="15.873"
   x="24.100599"
   id="SVGID_35_" />
		</defs>
		<clipPath
   id="SVGID_2_">
			<use
   height="100%"
   width="100%"
   y="0"
   x="0"
   style="overflow:visible"
   id="use5"
   overflow="visible"
   xlink:href="#SVGID_35_" />
		</clipPath>
		<path
   style="fill:#ffffff"
   id="path8"
   d="m 27.2783,46.5176 c -1.1465,0 -2.2559,-0.624 -2.8203,-1.7139 -0.8066,-1.5566 -0.1992,-3.4717 1.3574,-4.2783 L 68.083,16.4072 c 1.1816,-0.752 2.8086,-0.6709 3.8984,0 l 42.2402,24.1182 c 1.5547,0.8066 2.1621,2.7236 1.3555,4.2793 -0.8066,1.5566 -2.7246,2.165 -4.2793,1.3555 L 69.8974,23.3272 28.7372,46.1612 c -0.4667,0.2431 -0.9667,0.3564 -1.4589,0.3564"
   clip-path="url(#SVGID_2_)" />
	</g>
	<g
   id="g20">
		<defs
   id="defs13">
			<rect
   height="90.821297"
   width="49.017601"
   y="40.167999"
   x="24.1826"
   id="SVGID_37_" />
		</defs>
		<clipPath
   id="SVGID_4_">
			<use
   height="100%"
   width="100%"
   y="0"
   x="0"
   style="overflow:visible"
   id="use15"
   overflow="visible"
   xlink:href="#SVGID_37_" />
		</clipPath>
		<path
   style="fill:#ffffff"
   id="path18"
   d="m 70.0225,130.9893 c -0.4941,0 -0.9961,-0.1152 -1.4648,-0.3594 l -42.498,-22.1455 c -1.0469,-0.5459 -1.7051,-1.627 -1.707,-2.8076 L 24.1828,43.3516 c -0.002,-1.1035 0.5684,-2.1279 1.5059,-2.708 0.9375,-0.5801 2.1094,-0.6318 3.0957,-0.1377 l 42.666,21.4336 c 1.5664,0.7871 2.1973,2.6943 1.4102,4.2617 -0.7871,1.5664 -2.6953,2.1973 -4.2617,1.4111 l -38.053,-19.1152 0.1504,55.2432 40.7949,21.2588 c 1.5547,0.8105 2.1582,2.7275 1.3477,4.2822 -0.5645,1.0859 -1.6719,1.708 -2.8164,1.708"
   clip-path="url(#SVGID_4_)" />
	</g>
	<g
   id="g32">
		<g
   style="opacity:0.9"
   id="g30">
			<g
   id="g28">
				<defs
   id="defs23">
					<path
   d="M 69.8975,127.8145"
   id="SVGID_39_" />
				</defs>
				<clipPath
   id="SVGID_6_">
					<use
   height="100%"
   width="100%"
   y="0"
   x="0"
   style="overflow:visible"
   id="use25"
   overflow="visible"
   xlink:href="#SVGID_39_" />
				</clipPath>
			</g>
		</g>
	</g>
	<g
   id="g42">
		<defs
   id="defs35">
			<rect
   height="28.3848"
   width="49.035198"
   y="72.716797"
   x="66.8564"
   id="SVGID_41_" />
		</defs>
		<clipPath
   id="SVGID_8_">
			<use
   height="100%"
   width="100%"
   y="0"
   x="0"
   style="overflow:visible"
   id="use37"
   overflow="visible"
   xlink:href="#SVGID_41_" />
		</clipPath>
		<path
   style="fill:#ffffff"
   id="path40"
   d="m 70.0342,101.1016 c -1.1484,0 -2.2598,-0.627 -2.8223,-1.7188 -0.8047,-1.5576 -0.1934,-3.4727 1.3633,-4.2764 l 42.6836,-22.0352 c 1.5586,-0.8057 3.4746,-0.1943 4.2773,1.3643 0.8047,1.5576 0.1934,3.4727 -1.3633,4.2764 l -42.6836,22.0352 c -0.4667,0.2412 -0.9648,0.3545 -1.455,0.3545"
   clip-path="url(#SVGID_8_)" />
	</g>
	<g
   id="g52">
		<defs
   id="defs45">
			<rect
   height="28.5137"
   width="91.834"
   y="124.6396"
   x="23.9814"
   id="SVGID_43_" />
		</defs>
		<clipPath
   id="SVGID_10_">
			<use
   height="100%"
   width="100%"
   y="0"
   x="0"
   style="overflow:visible"
   id="use47"
   overflow="visible"
   xlink:href="#SVGID_43_" />
		</clipPath>
		<path
   style="fill:#ffffff"
   id="path50"
   d="m 69.8838,153.1533 c -0.502,0 -1.0039,-0.1191 -1.4629,-0.3564 l -42.7266,-22.165 c -1.5566,-0.8066 -2.1621,-2.7227 -1.3555,-4.2793 0.8066,-1.5557 2.7246,-2.1641 4.2793,-1.3555 l 41.2656,21.4053 41.2949,-21.4062 c 1.5566,-0.8076 3.4727,-0.1992 4.2793,1.3574 0.8066,1.5557 0.1992,3.4727 -1.3574,4.2793 L 71.3446,152.797 c -0.4589,0.2372 -0.9608,0.3563 -1.4608,0.3563"
   clip-path="url(#SVGID_10_)" />
	</g>
	<g
   id="g68">
		<path
   style="fill:#ffffff"
   id="path54"
   d="M 159.6982,87.1035 164.042,89.5 c -2.1133,4.3721 -4.5234,7.5293 -7.2344,9.4736 -2.7148,1.9424 -6.0762,2.916 -10.084,2.916 -6.0586,0 -10.8594,-2.2168 -14.4004,-6.6475 -3.543,-4.4307 -5.3125,-10.4434 -5.3125,-18.04 0,-7.8066 1.7422,-14.0078 5.2207,-18.6055 3.4805,-4.5957 8.1328,-6.8936 13.9492,-6.8936 4.1895,0 7.7324,1.0771 10.627,3.2305 2.8906,2.1562 5.1816,5.4043 6.8711,9.7432 l -5.0176,1.9453 c -1.2988,-3.4668 -2.9492,-6.0273 -4.9531,-7.6855 -2.0039,-1.6582 -4.4531,-2.4863 -7.3477,-2.4863 -4.25,0 -7.5664,1.7852 -9.9473,5.3564 -2.3809,3.5712 -3.5703,8.5381 -3.5703,14.8984 0,6.6006 1.1973,11.6807 3.5938,15.2363 2.3984,3.5576 5.8242,5.3359 10.2871,5.3359 2.8926,0 5.3418,-0.7842 7.3477,-2.3506 2.0019,-1.5682 3.8789,-4.1746 5.6269,-7.8231" />
		<path
   style="fill:#ffffff"
   id="path56"
   d="m 169.7842,76.7949 c 0,-7.6562 1.791,-13.7363 5.3789,-18.2432 3.5859,-4.5068 8.3926,-6.7588 14.4219,-6.7588 6.0293,0 10.8359,2.252 14.4238,6.7588 3.5879,4.5068 5.3789,10.5869 5.3789,18.2432 0,7.6865 -1.791,13.7891 -5.3789,18.3125 -3.5879,4.5205 -8.3945,6.7822 -14.4238,6.7822 -6.0293,0 -10.8359,-2.2617 -14.4219,-6.7822 -3.5879,-4.5234 -5.3789,-10.626 -5.3789,-18.3125 m 5.7402,0 c 0,6.4209 1.2363,11.4248 3.707,15.0117 2.4707,3.5869 5.9219,5.3799 10.3535,5.3799 4.4004,0 7.8301,-1.7842 10.2871,-5.3574 2.457,-3.5713 3.6855,-8.583 3.6855,-15.0342 0,-6.418 -1.2285,-11.4014 -3.6855,-14.9434 -2.457,-3.541 -5.8867,-5.3115 -10.2871,-5.3115 -4.4316,0 -7.8828,1.7803 -10.3535,5.334 -2.4707,3.5576 -3.707,8.5313 -3.707,14.9209" />
		<path
   style="fill:#ffffff"
   id="path58"
   d="m 226.8857,91.9873 c 0,1.8691 0.4316,3.248 1.2891,4.1396 0.8594,0.8867 2.1934,1.3311 4.002,1.3311 0.5723,0 1.2363,-0.0684 1.9902,-0.2031 0.7539,-0.1357 1.7773,-0.3691 3.0723,-0.7002 l 0.0469,4.6113 c -1.1816,0.3018 -2.3203,0.5342 -3.4102,0.7002 -1.0918,0.166 -2.1387,0.249 -3.1367,0.249 -3.3047,0 -5.7324,-0.8369 -7.2773,-2.5088 -1.5449,-1.6729 -2.3164,-4.3027 -2.3164,-7.8916 V 57.3535 h -7.1914 v -4.7031 h 7.1914 v -14.377 h 5.7402 v 14.377 h 10.1289 v 4.7031 h -10.1289 v 34.6338 z" />
		<path
   style="fill:#ffffff"
   id="path60"
   d="m 272.1143,101.0762 c -0.3066,-1.3848 -0.5273,-2.5771 -0.6641,-3.5732 -0.1367,-0.9941 -0.2363,-1.9277 -0.2988,-2.8027 -2.6758,2.4727 -5.3496,4.3027 -8.0234,5.4941 -2.6738,1.1904 -5.4688,1.7852 -8.3848,1.7852 -3.877,0 -7.0156,-1.1982 -9.4219,-3.5928 -2.4043,-2.3975 -3.6035,-5.5098 -3.6035,-9.3379 0,-5.2451 2.209,-9.374 6.625,-12.3896 4.4199,-3.0127 12.0508,-5.499 22.8984,-7.46 V 64.499 c 0,-2.4131 -0.9531,-4.3428 -2.8613,-5.79 -1.9043,-1.4434 -4.4785,-2.1689 -7.7227,-2.1689 -2.6133,0 -4.9023,0.6406 -6.8691,1.9209 -1.9688,1.2822 -3.6719,3.2354 -5.1113,5.8564 l -4.4727,-2.5781 c 1.9883,-3.4668 4.3555,-5.9912 7.0996,-7.5732 2.7402,-1.582 6.1172,-2.3721 10.127,-2.3721 4.5215,0 8.2461,1.1963 11.166,3.5908 2.9238,2.3984 4.3867,5.4355 4.3867,9.1143 v 30.1104 c 0,0.6045 0.0762,1.4629 0.2266,2.5771 0.1504,1.1172 0.3457,2.4111 0.5879,3.8896 z M 271.1514,88.7773 V 73.8564 c -9.4277,2.0791 -15.7324,4.1836 -18.916,6.3066 -3.1836,2.127 -4.7754,4.9971 -4.7754,8.6143 0,2.6826 0.7129,4.7861 2.1367,6.3076 1.4277,1.5225 3.3887,2.2832 5.8809,2.2832 2.5215,0 5.0293,-0.6855 7.5215,-2.0566 2.4921,-1.372 5.2128,-3.5498 8.1523,-6.5342" />
		<path
   style="fill:#ffffff"
   id="path62"
   d="m 291.3623,101.0762 c 0.1191,-0.7539 0.2109,-1.5986 0.2715,-2.5342 0.0605,-0.9336 0.0898,-2.4395 0.0898,-4.5205 V 34.2041 h 5.7402 v 24.7324 h 0.4551 c 2.2598,-2.4414 4.5645,-4.2412 6.9141,-5.4043 2.3555,-1.1602 4.9004,-1.7393 7.6445,-1.7393 5.2148,0 9.4023,2.2588 12.5684,6.7793 3.168,4.5225 4.7461,10.5977 4.7461,18.2227 0,7.6572 -1.5781,13.7529 -4.7461,18.29 -3.166,4.5361 -7.3535,6.8047 -12.5684,6.8047 -2.7441,0 -5.2891,-0.5732 -7.6445,-1.7188 -2.3496,-1.1455 -4.6543,-2.9385 -6.9141,-5.3809 h -0.4551 l -1.4922,6.2861 h -4.6093 z m 6.1016,-12.9776 c 2.3809,3.165 4.7109,5.4707 6.9863,6.918 2.2754,1.4463 4.6621,2.1709 7.1641,2.1709 3.9805,0 7.0508,-1.7715 9.207,-5.3135 2.1523,-3.542 3.2305,-8.5664 3.2305,-15.0791 0,-6.5098 -1.084,-11.541 -3.2559,-15.1006 -2.1699,-3.5586 -5.2305,-5.334 -9.1816,-5.334 -2.4082,0 -4.7676,0.7451 -7.0742,2.2363 -2.3047,1.4932 -4.6641,3.8066 -7.0762,6.9395 z" />
		<path
   style="fill:#ffffff"
   id="path64"
   d="m 336.2607,76.7949 c 0,-7.6562 1.791,-13.7363 5.3789,-18.2432 3.5898,-4.5068 8.3945,-6.7588 14.4238,-6.7588 6.0273,0 10.8359,2.252 14.4238,6.7588 3.5859,4.5068 5.3789,10.5869 5.3789,18.2432 0,7.6865 -1.793,13.7891 -5.3789,18.3125 -3.5879,4.5205 -8.3965,6.7822 -14.4238,6.7822 -6.0293,0 -10.834,-2.2617 -14.4238,-6.7822 -3.5878,-4.5234 -5.3789,-10.626 -5.3789,-18.3125 m 5.7403,0 c 0,6.4209 1.2383,11.4248 3.709,15.0117 2.4707,3.5869 5.9199,5.3799 10.3535,5.3799 4.4023,0 7.8301,-1.7842 10.2852,-5.3574 2.4551,-3.5713 3.6855,-8.583 3.6855,-15.0342 0,-6.418 -1.2305,-11.4014 -3.6855,-14.9434 -2.4551,-3.541 -5.8828,-5.3115 -10.2852,-5.3115 -4.4336,0 -7.8828,1.7803 -10.3535,5.334 -2.4707,3.5576 -3.709,8.5313 -3.709,14.9209" />
		<polygon
   style="fill:#ffffff"
   id="polygon66"
   points="381.4268,52.6504 387.8486,52.6504 399.1045,70.4199 410.1416,52.6504 415.9697,52.6504 401.9092,75.5303 418.0986,101.0762 411.9033,101.0762 398.4717,80.4131 385.7666,101.0762 379.8447,101.0762 395.9873,75.5303 " />
	</g>
	<g
   id="g78">
		<defs
   id="defs71">
			<rect
   height="90.821297"
   width="49.084"
   y="40.167999"
   x="66.850601"
   id="SVGID_45_" />
		</defs>
		<clipPath
   id="SVGID_12_">
			<use
   height="100%"
   width="100%"
   y="0"
   x="0"
   style="overflow:visible"
   id="use73"
   overflow="visible"
   xlink:href="#SVGID_45_" />
		</clipPath>
		<path
   style="fill:#ffffff"
   id="path76"
   d="m 70.0244,130.9893 c -0.5723,0 -1.1445,-0.1543 -1.6484,-0.4629 -0.9473,-0.5752 -1.5254,-1.6035 -1.5254,-2.7119 V 64.7754 c 0,-1.2002 0.6777,-2.2988 1.75,-2.8369 L 111.335,40.5049 c 0.9863,-0.4941 2.1582,-0.4404 3.0957,0.1396 0.9375,0.5811 1.5059,1.6064 1.502,2.709 l -0.209,62.4365 c -0.002,1.1816 -0.6641,2.2637 -1.7129,2.8076 l -42.5254,22.0352 c -0.459,0.2383 -0.961,0.3565 -1.461,0.3565 m 3.1738,-64.2539 v 55.8584 l 36.1836,-18.749 0.1855,-55.3496 z"
   clip-path="url(#SVGID_12_)" />
	</g>
</g>
</svg>